<svg width="30" height="30" viewBox="0 0 32 32" fill="none" xmlns="http://www.w3.org/2000/svg">
<g clip-path="url(#clip0_1318_4648)">
<mask id="mask0_1318_4648" style="mask-type:alpha" maskUnits="userSpaceOnUse" x="0" y="0" width="33" height="32">
<rect width="32.0148" height="32" fill="black"/>
</mask>
<g mask="url(#mask0_1318_4648)">
<ellipse cx="16.0074" cy="16.0225" rx="16.0074" ry="16" fill="white"/>
<path d="M9.25678 6.89337C10.9353 5.65017 12.9192 4.89865 14.9868 4.71191V8.13177C13.6502 8.30497 12.3738 8.81645 11.2819 9.62514C9.91475 10.6377 8.90934 12.0627 8.414 13.6899C7.91866 15.317 7.95962 17.0602 8.53082 18.6624C9.10203 20.2645 10.1732 21.6407 11.5865 22.5881C12.9997 23.5354 14.6801 24.0037 16.3798 23.9239C18.0795 23.844 19.7086 23.2203 21.0267 22.1447C22.3449 21.069 23.2822 19.5985 23.7006 17.9499C23.9924 16.7999 24.021 15.6058 23.7924 14.4546L26.6655 12.1459L26.6636 12.1273C27.4392 14.2598 27.5576 16.5797 26.9978 18.7858C26.4001 21.141 25.061 23.2418 23.1779 24.7784C21.2949 26.315 18.9677 27.2061 16.5395 27.3201C14.1113 27.4342 11.7107 26.7652 9.69183 25.4118C7.67294 24.0585 6.14264 22.0925 5.32663 19.8037C4.51062 17.5149 4.45212 15.0246 5.15975 12.7001C5.86737 10.3756 7.30367 8.33993 9.25678 6.89337Z" fill="#FCCA00"/>
<path d="M24.4993 8.48949L24.5114 8.51963L22.5914 11.5676C21.8932 10.5334 20.9575 9.67262 19.8626 9.06332V15.9996C19.8626 18.1278 18.1366 19.853 16.0075 19.853C13.8783 19.853 12.1523 18.1278 12.1523 15.9996C12.1523 13.8715 13.8783 12.1463 16.0075 12.1463C16.8054 12.1463 17.5467 12.3886 18.1618 12.8036V4.87061C20.6647 5.3518 22.8747 6.65559 24.4993 8.48949Z" fill="#FC3F1D"/>
</g>
</g>
<defs>
<clipPath id="clip0_1318_4648">
<rect width="32" height="32" fill="white"/>
</clipPath>
</defs>
</svg>
