<svg width="235" height="70" viewBox="0 0 235 70" fill="none" xmlns="http://www.w3.org/2000/svg">
<path d="M109.81 46.7588V30.4774H109.689L103.176 46.7588H100.644L94.1311 30.4774H94.0105V46.7588H90.9954V24.6884H94.8547L101.85 42.2965H101.97L108.965 24.6884H112.945V46.7588H109.81ZM129.95 46.7588H126.815V43.9849H126.694C125.85 45.9146 124.161 47 121.749 47C118.252 47 116.201 44.7085 116.201 40.9698V30.598H119.458V40.3668C119.458 42.7789 120.664 44.1055 122.835 44.1055C125.247 44.1055 126.573 42.4171 126.573 39.8844V30.598H129.83L129.95 46.7588ZM138.875 30.3568C142.614 30.3568 144.905 32.407 145.026 35.4221H142.011C141.769 33.8543 140.684 32.8894 138.875 32.8894C137.066 32.8894 135.86 33.7337 135.86 35.0603C135.86 36.0251 136.583 36.7487 138.272 37.1106L140.804 37.7136C144.061 38.4372 145.267 39.7638 145.267 42.0553C145.267 44.9497 142.614 47 138.875 47C134.895 47 132.483 45.0704 132.242 41.9347H135.498C135.739 43.6231 136.945 44.4673 138.875 44.4673C140.804 44.4673 142.011 43.6231 142.011 42.2965C142.011 41.2111 141.407 40.608 139.719 40.2462L137.186 39.6432C134.171 38.9196 132.724 37.4724 132.724 35.0603C132.724 32.2864 135.136 30.3568 138.875 30.3568ZM147.679 26.3769C147.679 25.2915 148.523 24.4472 149.608 24.4472C150.694 24.4472 151.538 25.2915 151.538 26.3769C151.538 27.4623 150.694 28.3065 149.608 28.3065C148.523 28.3065 147.679 27.4623 147.679 26.3769ZM147.92 30.598H151.176V46.7588H147.92V30.598ZM164.925 36.1457C164.563 34.4573 163.357 33.0101 161.186 33.0101C158.654 33.0101 156.965 35.1809 156.965 38.5578C156.965 42.0553 158.654 44.1055 161.186 44.1055C163.237 44.1055 164.443 43.0201 164.925 41.0905H168.061C167.699 44.4673 165.046 46.8794 161.186 46.8794C156.603 46.8794 153.709 43.7437 153.709 38.5578C153.709 33.4925 156.603 30.2362 161.186 30.2362C165.287 30.2362 167.699 32.8894 168.061 36.0251L164.925 36.1457ZM80.9854 26.8593C80.1412 27.8241 78.8145 28.6683 77.4879 28.5477C77.2467 27.1005 77.9703 25.6533 78.6939 24.809C79.5381 23.7236 80.9854 23 82.1914 23C82.312 24.3266 81.8296 25.7739 80.9854 26.8593ZM82.1914 28.7889C82.915 28.7889 85.0859 29.0302 86.5331 31.201C86.4125 31.3216 84.0005 32.7688 84.0005 35.7839C84.0005 39.402 87.1361 40.608 87.1361 40.608C87.1361 40.7286 86.6537 42.2965 85.5683 43.9849C84.6035 45.4322 83.518 46.8794 81.9502 46.8794C80.3824 46.8794 79.9 45.9146 78.0909 45.9146C76.2819 45.9146 75.6789 46.8794 74.2316 46.8794C72.6638 46.8794 71.4577 45.3116 70.4929 43.8643C68.4427 40.8492 66.8748 35.4221 69.0457 31.804C70.0105 29.995 71.9402 28.7889 73.8698 28.7889C75.4376 28.7889 76.8849 29.8744 77.7291 29.8744C78.5733 29.8744 80.2618 28.6683 82.1914 28.7889Z" fill="black"/>
</svg>
