<svg width="235" height="70" viewBox="0 0 235 70" fill="none" xmlns="http://www.w3.org/2000/svg">
<g clip-path="url(#clip0_1758_1023)">
<path d="M80.0586 38.9262C80.0586 44.5889 83.5466 47.978 88.7291 47.978C91.3133 47.978 93.488 47.2578 94.7024 45.3656V47.978H99.4331V21.0063H94.5188V32.4728C93.4033 30.5805 91.3415 29.7333 88.7573 29.7333C83.7019 29.7191 80.0586 33.1789 80.0586 38.9262ZM94.6742 38.9262C94.6742 42.16 92.4713 44.1794 89.8306 44.1794C87.091 44.1794 84.9869 42.16 84.9869 38.9262C84.9869 35.636 87.1051 33.5743 89.8306 33.5743C92.4713 33.5743 94.6742 35.6642 94.6742 38.9262Z" fill="black"/>
<path d="M114.726 41.0161C114.161 43.1061 112.735 44.1511 110.49 44.1511C107.877 44.1511 105.731 42.5695 105.674 39.7734H118.059C118.214 39.0815 118.285 38.3472 118.285 37.5423C118.285 32.5292 114.867 29.7049 109.826 29.7049C104.446 29.7049 100.746 33.5318 100.746 38.7285C100.746 44.5182 104.827 47.9921 110.476 47.9921C114.74 47.9921 117.635 46.2128 118.906 42.6683L114.726 41.0161ZM105.674 36.4973C106.14 34.4779 107.821 33.2918 109.84 33.2918C112.043 33.2918 113.54 34.4779 113.54 36.342L113.512 36.4973H105.674Z" fill="black"/>
<path d="M132.957 41.0161C132.392 43.1061 130.966 44.1511 128.72 44.1511C126.108 44.1511 123.961 42.5695 123.905 39.7734H136.289C136.445 39.0815 136.515 38.3472 136.515 37.5423C136.515 32.5292 133.098 29.7049 128.057 29.7049C122.676 29.7049 118.977 33.5318 118.977 38.7285C118.977 44.5182 123.058 47.9921 128.706 47.9921C132.971 47.9921 135.866 46.2128 137.137 42.6683L132.957 41.0161ZM123.905 36.4973C124.371 34.4779 126.051 33.2918 128.071 33.2918C130.274 33.2918 131.77 34.4779 131.77 36.342L131.742 36.4973H123.905Z" fill="black"/>
<path d="M153.857 48.0063V43.558H143.534L153.574 33.7861V29.7191H137.688V33.9555H147.389L137.377 43.7699V48.0063H153.857Z" fill="black"/>
<path d="M168.218 41.0161C167.654 43.1061 166.227 44.1511 163.982 44.1511C161.37 44.1511 159.223 42.5695 159.167 39.7734H171.551C171.706 39.0815 171.777 38.3472 171.777 37.5423C171.777 32.5292 168.36 29.7049 163.318 29.7049C157.938 29.7049 154.238 33.5318 154.238 38.7285C154.238 44.5182 158.319 47.9921 163.968 47.9921C168.233 47.9921 171.127 46.2128 172.398 42.6683L168.218 41.0161ZM159.167 36.4973C159.633 34.4779 161.313 33.2918 163.332 33.2918C165.535 33.2918 167.032 34.4779 167.032 36.342L167.004 36.4973H159.167Z" fill="black"/>
<path d="M75.019 29.7191H68.9609V33.2636H75.019V29.7191Z" fill="#40AB5D"/>
<path d="M75.019 34.6334H68.9609V38.1779H75.019V34.6334Z" fill="url(#paint0_linear_1758_1023)"/>
<path d="M75.019 39.5477H68.9609V43.0921H75.019V39.5477Z" fill="url(#paint1_linear_1758_1023)"/>
<path d="M53.0581 44.462H47V48.0064H53.0581V44.462Z" fill="url(#paint2_linear_1758_1023)"/>
<path d="M60.3725 44.462H54.3145V48.0064H60.3725V44.462Z" fill="url(#paint3_linear_1758_1023)"/>
<path d="M67.7026 44.462H61.6445V48.0064H67.7026V44.462Z" fill="url(#paint4_linear_1758_1023)"/>
<path d="M75.019 44.462H68.9609V48.0064H75.019V44.462Z" fill="url(#paint5_linear_1758_1023)"/>
<path d="M67.7026 39.5477H61.6445V43.0921H67.7026V39.5477Z" fill="url(#paint6_linear_1758_1023)"/>
<path d="M60.3725 39.5477H54.3145V43.0921H60.3725V39.5477Z" fill="url(#paint7_linear_1758_1023)"/>
<path d="M60.3725 34.6334H54.3145V38.1779H60.3725V34.6334Z" fill="url(#paint8_linear_1758_1023)"/>
<path d="M183.425 36.0314C183.425 36.2149 183.425 36.5539 183.425 36.5539H188.212C188.212 36.5539 188.212 35.6501 188.212 35.1558C188.212 32.0209 186.249 29.7474 182.959 29.7474C180.841 29.7474 179.344 30.7782 178.567 32.4869V29.7474H173.625V48.0063H178.567V36.2432C178.567 34.3792 179.57 33.3483 181.109 33.3483C182.521 33.3624 183.425 34.6898 183.425 36.0314Z" fill="black"/>
</g>
<defs>
<linearGradient id="paint0_linear_1758_1023" x1="72.0196" y1="38.2085" x2="71.9627" y2="34.5814" gradientUnits="userSpaceOnUse">
<stop stop-color="#358C7B"/>
<stop offset="0.5256" stop-color="#33A65E"/>
</linearGradient>
<linearGradient id="paint1_linear_1758_1023" x1="68.8719" y1="42.9101" x2="75.1108" y2="39.7312" gradientUnits="userSpaceOnUse">
<stop stop-color="#222B90"/>
<stop offset="1" stop-color="#367B99"/>
</linearGradient>
<linearGradient id="paint2_linear_1758_1023" x1="47.0011" y1="46.2356" x2="53.0541" y2="46.2356" gradientUnits="userSpaceOnUse">
<stop stop-color="#FF9900"/>
<stop offset="1" stop-color="#FF8000"/>
</linearGradient>
<linearGradient id="paint3_linear_1758_1023" x1="54.3212" y1="46.2356" x2="60.3742" y2="46.2356" gradientUnits="userSpaceOnUse">
<stop stop-color="#FF8000"/>
<stop offset="1" stop-color="#CC1953"/>
</linearGradient>
<linearGradient id="paint4_linear_1758_1023" x1="61.6428" y1="46.2356" x2="67.6958" y2="46.2356" gradientUnits="userSpaceOnUse">
<stop stop-color="#CC1953"/>
<stop offset="1" stop-color="#241284"/>
</linearGradient>
<linearGradient id="paint5_linear_1758_1023" x1="68.9577" y1="46.2356" x2="75.0107" y2="46.2356" gradientUnits="userSpaceOnUse">
<stop stop-color="#222B90"/>
<stop offset="1" stop-color="#3559A6"/>
</linearGradient>
<linearGradient id="paint6_linear_1758_1023" x1="61.4039" y1="42.2756" x2="67.9347" y2="40.3658" gradientUnits="userSpaceOnUse">
<stop stop-color="#CC1953"/>
<stop offset="1" stop-color="#241284"/>
</linearGradient>
<linearGradient id="paint7_linear_1758_1023" x1="54.1058" y1="40.1407" x2="60.5896" y2="42.5007" gradientUnits="userSpaceOnUse">
<stop offset="0.00266984" stop-color="#FFCC00"/>
<stop offset="0.9999" stop-color="#CE1938"/>
</linearGradient>
<linearGradient id="paint8_linear_1758_1023" x1="54.83" y1="34.0826" x2="59.8654" y2="38.7291" gradientUnits="userSpaceOnUse">
<stop offset="0.00266984" stop-color="#FFD100"/>
<stop offset="1" stop-color="#FD5A22"/>
</linearGradient>
<clipPath id="clip0_1758_1023">
<rect width="141.213" height="27" fill="white" transform="translate(47 21)"/>
</clipPath>
</defs>
</svg>
