<svg width="235" height="70" viewBox="0 0 235 70" fill="none" xmlns="http://www.w3.org/2000/svg">
<g clip-path="url(#clip0_1757_980)">
<path d="M73.3014 16.1846C62.7259 16.1846 54.1523 24.7579 54.1523 35.3334C54.1523 45.9094 62.7259 54.482 73.3014 54.482C83.878 54.482 92.4506 45.9094 92.4506 35.3334C92.4506 24.7586 83.878 16.1855 73.3011 16.1855L73.3014 16.1846ZM82.083 43.8027C82.0013 43.9366 81.894 44.0531 81.7672 44.1454C81.6404 44.2378 81.4966 44.3043 81.3441 44.341C81.1916 44.3778 81.0334 44.3841 80.8785 44.3596C80.7235 44.3351 80.5749 44.2803 80.4412 44.1983C75.9452 41.452 70.2853 40.8301 63.6197 42.353C63.3111 42.4232 62.9872 42.3679 62.7193 42.1994C62.4513 42.0309 62.2612 41.7629 62.1908 41.4543C62.1557 41.3015 62.1511 41.1433 62.1773 40.9887C62.2034 40.8342 62.2598 40.6863 62.3432 40.5535C62.4266 40.4208 62.5354 40.3058 62.6632 40.2151C62.7911 40.1244 62.9357 40.0599 63.0885 40.0252C70.3829 38.3587 76.6399 39.0762 81.6874 42.1609C82.2499 42.5062 82.4283 43.2402 82.083 43.8027V43.8027ZM84.4268 38.5887C83.9946 39.2912 83.0754 39.513 82.3734 39.0808C77.2262 35.917 69.38 35.0007 63.2918 36.8488C62.5022 37.0873 61.6683 36.6423 61.4287 35.8541C61.3143 35.4752 61.3549 35.0663 61.5416 34.7173C61.7282 34.3682 62.0456 34.1074 62.4243 33.9921C69.3786 31.882 78.0242 32.9041 83.9352 36.5364C84.6372 36.9686 84.859 37.8878 84.4268 38.5889V38.5887ZM84.628 33.1593C78.4564 29.4936 68.274 29.1565 62.3815 30.9449C61.4353 31.2319 60.4347 30.6977 60.1479 29.7515C60.01 29.2969 60.0584 28.8062 60.2822 28.3872C60.5061 27.9682 60.8872 27.6553 61.3418 27.5172C68.1059 25.4638 79.3505 25.8606 86.456 30.0787C86.6585 30.1985 86.8354 30.3571 86.9765 30.5454C87.1176 30.7336 87.2202 30.9479 87.2784 31.1759C87.3366 31.4038 87.3493 31.6411 87.3157 31.8739C87.2821 32.1068 87.2028 32.3308 87.0825 32.533C86.5795 33.3841 85.4773 33.6646 84.6289 33.1593H84.628ZM106.251 33.8618C102.944 33.0733 102.356 32.5199 102.356 31.3572C102.356 30.2587 103.39 29.5194 104.929 29.5194C106.42 29.5194 107.897 30.0808 109.447 31.2365C109.493 31.2714 109.552 31.2854 109.61 31.2762C109.638 31.2721 109.666 31.2622 109.691 31.247C109.716 31.2318 109.737 31.2117 109.754 31.188L111.368 28.9123C111.4 28.8672 111.413 28.8116 111.406 28.7569C111.398 28.7022 111.37 28.6524 111.327 28.6178C109.482 27.1376 107.405 26.418 104.977 26.418C101.407 26.418 98.9127 28.5604 98.9127 31.6256C98.9127 34.9127 101.064 36.0766 104.783 36.975C107.945 37.7038 108.48 38.3143 108.48 39.4055C108.48 40.6151 107.401 41.3674 105.663 41.3674C103.733 41.3674 102.157 40.7157 100.397 39.1928C100.353 39.1557 100.296 39.1369 100.239 39.1402C100.179 39.1448 100.127 39.1723 100.09 39.2157L98.2793 41.3697C98.2038 41.4612 98.213 41.5938 98.2999 41.6716C100.349 43.5009 102.869 44.4658 105.59 44.4658C109.436 44.4658 111.921 42.3644 111.921 39.1105C111.928 36.3649 110.284 34.8443 106.257 33.8647L106.251 33.8618ZM120.624 30.601C118.957 30.601 117.59 31.2577 116.46 32.6034V31.0887C116.461 31.0315 116.438 30.9764 116.398 30.9358C116.358 30.8951 116.303 30.872 116.245 30.8717H113.284C113.165 30.8717 113.069 30.9691 113.069 31.0887V47.9187C113.069 48.0376 113.165 48.1359 113.284 48.1359H116.245C116.364 48.1359 116.46 48.0376 116.46 47.9187V42.6068C117.59 43.8713 118.957 44.491 120.624 44.491C123.723 44.491 126.86 42.106 126.86 37.5467C126.865 32.9864 123.727 30.6008 120.627 30.6008L120.624 30.601ZM123.416 37.5467C123.416 39.8674 121.987 41.4886 119.938 41.4886C117.915 41.4886 116.387 39.7942 116.387 37.5467C116.387 35.2989 117.915 33.605 119.938 33.605C121.953 33.6047 123.416 35.2621 123.416 37.5464V37.5467ZM134.898 30.601C130.907 30.601 127.782 33.6733 127.782 37.5963C127.782 41.4772 130.887 44.5161 134.85 44.5161C138.853 44.5161 141.988 41.4543 141.988 37.5467C141.988 33.6523 138.874 30.6015 134.898 30.6015V30.601ZM134.898 41.5115C132.776 41.5115 131.175 39.8056 131.175 37.5455C131.175 35.2751 132.721 33.6276 134.85 33.6276C136.985 33.6276 138.595 35.3327 138.595 37.5952C138.595 39.8651 137.04 41.5115 134.898 41.5115ZM150.508 30.8717H147.25V27.541C147.25 27.5127 147.245 27.4846 147.234 27.4583C147.223 27.4321 147.207 27.4082 147.187 27.3881C147.167 27.368 147.144 27.352 147.118 27.341C147.091 27.3301 147.063 27.3244 147.035 27.3242H144.074C143.955 27.3242 143.857 27.4217 143.857 27.541V30.8717H142.434C142.315 30.8717 142.219 30.9691 142.219 31.0887V33.6331C142.219 33.7524 142.315 33.8501 142.434 33.8501H143.857V40.4345C143.857 43.0938 145.181 44.443 147.794 44.443C148.855 44.443 149.736 44.2234 150.566 43.7524C150.634 43.7158 150.675 43.6426 150.675 43.5649V41.141C150.675 41.0679 150.637 40.997 150.573 40.9581C150.541 40.9382 150.506 40.9269 150.469 40.9253C150.432 40.9237 150.395 40.9318 150.362 40.949C149.793 41.2348 149.242 41.3674 148.624 41.3674C147.675 41.3674 147.25 40.9353 147.25 39.9703V33.8512H150.508C150.627 33.8512 150.723 33.7538 150.723 33.6342V31.0901C150.724 31.0617 150.72 31.0334 150.709 31.007C150.699 30.9805 150.683 30.9564 150.664 30.9361C150.644 30.9158 150.62 30.8998 150.594 30.8889C150.567 30.8781 150.539 30.8727 150.511 30.8731L150.508 30.8717ZM161.859 30.8848V30.4757C161.859 29.2722 162.321 28.7356 163.355 28.7356C163.972 28.7356 164.468 28.8581 165.024 29.0433C165.093 29.0648 165.164 29.0541 165.218 29.0132C165.246 28.9931 165.269 28.9666 165.284 28.936C165.3 28.9053 165.308 28.8714 165.308 28.8371V26.3424C165.308 26.2958 165.294 26.2503 165.266 26.2128C165.238 26.1752 165.199 26.1478 165.154 26.1345C164.569 25.96 163.819 25.781 162.694 25.781C159.961 25.781 158.514 27.3208 158.514 30.2324V30.8589H157.092C156.973 30.8589 156.875 30.9563 156.875 31.0757V33.6331C156.875 33.7524 156.973 33.8501 157.092 33.8501H158.514V44.0039C158.514 44.1251 158.612 44.2212 158.731 44.2212H161.69C161.811 44.2212 161.907 44.1251 161.907 44.0039V33.8508H164.672L168.907 44.0039C168.427 45.0695 167.953 45.2822 167.308 45.2822C166.787 45.2822 166.236 45.1267 165.676 44.818C165.623 44.7912 165.561 44.7855 165.504 44.802C165.447 44.8225 165.399 44.8637 165.376 44.9186L164.372 47.1206C164.324 47.2258 164.366 47.347 164.466 47.4019C165.513 47.969 166.458 48.2113 167.626 48.2113C169.812 48.2113 171.022 47.1915 172.085 44.4521L177.221 31.1811C177.234 31.1483 177.239 31.1127 177.235 31.0775C177.231 31.0423 177.219 31.0086 177.198 30.9797C177.179 30.9507 177.153 30.9269 177.122 30.9104C177.091 30.894 177.057 30.8854 177.022 30.8855H173.94C173.846 30.8855 173.764 30.9442 173.734 31.0309L170.576 40.048L167.119 31.0249C167.103 30.984 167.076 30.9488 167.04 30.9239C167.004 30.899 166.961 30.8856 166.917 30.8855H161.859V30.8848ZM155.278 30.8717H152.317C152.198 30.8717 152.1 30.9691 152.1 31.0887V44.0039C152.1 44.1251 152.198 44.2212 152.317 44.2212H155.278C155.397 44.2212 155.496 44.1251 155.496 44.0039V31.0897C155.496 31.0611 155.49 31.0329 155.479 31.0065C155.468 30.9801 155.452 30.9562 155.432 30.936C155.412 30.9158 155.388 30.8999 155.362 30.889C155.335 30.8781 155.307 30.8726 155.278 30.8727V30.8717ZM153.815 24.9907C152.642 24.9907 151.691 25.9401 151.691 27.113C151.691 27.3919 151.746 27.6681 151.852 27.9259C151.959 28.1836 152.116 28.4177 152.313 28.615C152.51 28.8122 152.744 28.9687 153.002 29.0754C153.26 29.1821 153.536 29.237 153.815 29.237C154.988 29.237 155.937 28.2865 155.937 27.113C155.937 25.9404 154.986 24.9907 153.815 24.9907ZM179.75 35.0245C178.579 35.0245 177.667 34.0836 177.667 32.9409C177.667 31.7983 178.591 30.8466 179.762 30.8466C180.932 30.8466 181.845 31.7873 181.845 32.929C181.845 34.0717 180.921 35.0245 179.75 35.0245ZM179.762 31.0538C178.694 31.0538 177.886 31.9021 177.886 32.9409C177.886 33.9793 178.689 34.8162 179.75 34.8162C180.818 34.8162 181.625 33.9685 181.625 32.929C181.625 31.8907 180.823 31.0538 179.762 31.0538V31.0538ZM180.223 33.1433L180.813 33.9683H180.315L179.784 33.2114H179.329V33.9683H178.913V31.7814H179.887C180.397 31.7814 180.731 32.0414 180.731 32.479C180.733 32.8376 180.525 33.0566 180.226 33.1433H180.223ZM179.871 32.1566H179.329V32.8483H179.871C180.141 32.8483 180.303 32.7159 180.303 32.5021C180.303 32.2771 180.141 32.1566 179.871 32.1566V32.1566Z" fill="#1ED760"/>
</g>
<defs>
<clipPath id="clip0_1757_980">
<rect width="235" height="70" fill="white"/>
</clipPath>
</defs>
</svg>
