<svg width="100" height="100" viewBox="0 0 100 100" fill="none" xmlns="http://www.w3.org/2000/svg">
<rect width="100" height="100" fill="#F3F4F6"/>
<g clip-path="url(#clip0_3_20)">
<path d="M35.3333 65.9424C40.2221 69.4979 45.1112 72.3424 50 72.3424C54.8888 72.3424 59.7779 69.4979 64.6667 65.9424C60.637 64.7157 58.5925 62.8846 58.5333 60.4491C58.5333 60.0149 58.5365 59.3984 58.5395 58.2408C58.5395 58.057 58.5399 57.8687 58.5408 57.676C58.5488 54.572 58.5619 50.476 58.5803 46.316C62.4021 41.3621 60.9981 35.5544 59.8005 35.6992C58.3323 35.8779 45.6115 23.8064 43.1715 23.1875C40.7315 22.5685 34.5333 24.5667 33.4667 30.1333C32.4 35.7 31.9541 49.7315 36 55.3333C37.1513 56.9275 38.9646 57.551 41.44 57.204C41.4435 58.3691 41.4504 59.0229 41.4667 60.3424C41.4349 62.8888 39.3907 64.7171 35.3333 65.9424Z" fill="url(#paint0_linear_3_20)"/>
<path d="M41.4667 57.2C47.3333 56.5333 51.0667 54 51.0667 54C51.0667 54 46.8 59.3333 41.4667 60.4V57.2Z" fill="#D1D5DB"/>
<path d="M60.5334 46.4C62.3707 41.9813 69.7334 32.9821 63.3867 27.3821C61.2534 16.9821 49.4667 18.1333 41.6 20.5333C36.3128 22.1464 32.32 25.3333 31.4667 22.9333C26.1333 27.3821 28.8043 31.7333 32.32 32.9821C35.511 34.1155 40.9067 35.2488 50.0816 34.1821C51.7206 33.9915 51.3774 39.0109 52.2531 39.5536C53.567 40.3677 54.5867 35.2488 58.1888 36.7859C61.791 38.3229 59.6534 45.4499 55.7867 45.4499C54.4534 45.4499 53.7867 49.1157 57.3867 50.8491C60 52.1333 59.3395 49.2712 60.5334 46.4Z" fill="url(#paint1_linear_3_20)"/>
<path d="M78 74.0822C80.5387 79.244 82 91.1488 82 91.1488H18C18 91.1488 19.4619 79.2427 22 74.0822C24.5381 68.9216 39.36 64.1352 39.36 64.1352C47.5501 67.3334 52.5621 67.3334 60.6323 64.1334C60.6323 64.1334 75.4613 68.9203 78 74.0822Z" fill="url(#paint2_linear_3_20)"/>
</g>
<defs>
<linearGradient id="paint0_linear_3_20" x1="48.6991" y1="23.0792" x2="48.6991" y2="72.3424" gradientUnits="userSpaceOnUse">
<stop stop-color="#D1D5DB"/>
<stop offset="1" stop-color="#D1D5DB"/>
</linearGradient>
<linearGradient id="paint1_linear_3_20" x1="47.1841" y1="18.9034" x2="47.1841" y2="51.1649" gradientUnits="userSpaceOnUse">
<stop stop-color="#9CA3AF"/>
<stop offset="1" stop-color="#9CA3AF"/>
</linearGradient>
<linearGradient id="paint2_linear_3_20" x1="50" y1="64.1334" x2="50" y2="91.1488" gradientUnits="userSpaceOnUse">
<stop stop-color="#1D0024"/>
<stop offset="1" stop-color="#100014"/>
</linearGradient>
<clipPath id="clip0_3_20">
<path d="M10 50C10 27.9086 27.9086 10 50 10V10C72.0914 10 90 27.9086 90 50V50C90 72.0914 72.0914 90 50 90V90C27.9086 90 10 72.0914 10 50V50Z" fill="white"/>
</clipPath>
</defs>
</svg>
