<svg width="235" height="70" viewBox="0 0 235 70" fill="none" xmlns="http://www.w3.org/2000/svg">
<path d="M93.0468 41.2491L98.0028 27.653H95.5534L91.5804 38.8579H91.1949L87.357 27.653H84.8691L89.6714 41.2491H93.0468Z" fill="black"/>
<path d="M104.429 34.2105L110.196 27.653H107.342L102.52 33.1879H101.961V27.653H99.6465V41.2491H101.961V35.4254H102.54L107.631 41.2491H110.678L104.429 34.2105Z" fill="black"/>
<path d="M118.439 41.2491V30.7384H118.748L122.547 41.2491H124.706L128.583 30.7384H128.891V41.2491H131.147V27.653H127.599L123.819 37.9319H123.51L119.807 27.653H116.182V41.2491H118.439Z" fill="black"/>
<path d="M138.415 38.4525H138.106L135.156 31.2206H132.783L137.238 41.7895L137.123 42.0982C136.833 42.9077 136.487 43.1779 135.753 43.1779H133.883L134.075 45.2034H135.598C137.45 45.2034 138.452 44.3741 139.128 42.5035L143.236 31.2217H140.98L138.415 38.4525Z" fill="black"/>
<path d="M150.213 36.1382C151.236 35.868 151.987 35.0387 151.987 33.9008C151.987 32.2224 150.386 31.0273 148.169 31.0273C146.183 31.0273 144.504 31.9533 143.887 33.8623L145.931 34.2094C146.337 33.4186 147.126 32.9177 148.091 32.9177C149.017 32.9177 149.768 33.3801 149.768 34.1325C149.768 34.8081 149.151 35.2507 147.956 35.2507H146.703V37.1795H147.957C149.46 37.1795 149.924 37.6815 149.924 38.3175C149.924 39.0886 149.23 39.5521 147.957 39.5521C146.799 39.5521 146.125 39.1666 145.681 38.279L143.637 38.6261C144.119 40.3045 145.758 41.4414 147.975 41.4414C150.522 41.4414 152.142 40.1299 152.142 38.491C152.142 37.2378 151.236 36.4469 150.213 36.1382Z" fill="black"/>
<path d="M158.041 41.2492C160.433 41.2492 162.13 39.7642 162.13 37.6618C162.13 35.5594 160.451 34.0744 158.041 34.0744H156.479V31.2196H154.262V41.2481H158.041V41.2492ZM165.543 41.2492V31.2207H163.326V41.2492H165.543V41.2492ZM156.479 36.0043H158.041C159.141 36.0043 159.912 36.6798 159.912 37.6629C159.912 38.646 159.141 39.3215 158.041 39.3215H156.479V36.0043Z" fill="black"/>
<path d="M177.186 41.2491L172.577 36.0415L176.8 31.2206H174.159L170.803 35.1167H170.263V31.2206H168.045V41.2491H170.263V37.2575H170.803L174.275 41.2491H177.186V41.2491Z" fill="black"/>
<path d="M182.154 31.0284C180.207 31.0284 178.49 32.0313 177.989 33.7668L180.033 34.1139C180.342 33.4966 181.036 32.9177 182.039 32.9177C183.254 32.9177 183.968 33.7854 184.064 35.0969H181.905C178.955 35.0969 177.488 36.3887 177.488 38.2406C177.488 40.1112 178.935 41.4425 180.979 41.4425C182.619 41.4425 183.717 40.4978 184.2 39.6685L184.662 41.2502H186.301V35.6187C186.301 32.7057 184.719 31.0284 182.154 31.0284ZM181.499 39.5719C180.419 39.5719 179.725 39.0128 179.725 38.145C179.725 37.3739 180.284 36.8335 181.981 36.8335H184.083C184.083 38.4724 183.042 39.5719 181.499 39.5719Z" fill="black"/>
<path fill-rule="evenodd" clip-rule="evenodd" d="M50.8981 22.897C49.0571 24.739 49.0022 27.6684 49 33.4197C54.1537 33.4197 57.371 31.2075 60.1939 29.2666C62.3984 27.7508 64.3624 26.3998 66.8195 26.3998C70.4772 26.3998 73.6703 28.9854 75.3629 30.3574C75.6013 30.5507 75.8111 30.7198 75.9868 30.8538C75.933 26.7535 75.6452 24.4424 74.1009 22.8981C72.2039 21 69.1492 21 63.0399 21H61.9601C55.8508 21 52.7961 21 50.8981 22.897ZM61.166 47.9989C61.4252 47.9989 61.6888 47.9989 61.9601 47.9989H63.0399C63.3101 47.9989 63.5748 47.9989 63.834 47.9989H61.166Z" fill="#0077FF"/>
<path fill-rule="evenodd" clip-rule="evenodd" d="M49 33.4197C54.1537 33.4197 57.371 31.2075 60.1939 29.2666C62.3984 27.7508 64.3624 26.3998 66.8195 26.3998C70.4772 26.3998 73.6703 28.9854 75.3629 30.3574C75.6013 30.5507 75.8111 30.7198 75.9868 30.8538C75.9989 31.7919 75.9989 32.8233 75.9989 33.9601V35.0399C75.9989 41.1492 75.9989 44.2039 74.1009 46.102C72.2874 47.9154 69.4161 47.9956 63.8329 48H61.166C55.5817 47.9967 52.7115 47.9165 50.8981 46.102C49 44.2039 49 41.1492 49 35.0399V33.9601C49 33.7767 49 33.5966 49 33.4197Z" fill="#F45FFF"/>
<path d="M69.9258 34.763C69.9258 34.0952 70.4739 33.5548 71.1406 33.5548C71.8085 33.5548 72.3555 34.0952 72.3555 34.763V39.6367C72.3555 40.3034 71.8074 40.8449 71.1406 40.8449C70.4728 40.8449 69.9258 40.3034 69.9258 39.6367V34.763Z" fill="white"/>
<path d="M65.6035 31.6578C65.6035 30.99 66.1516 30.4496 66.8184 30.4496C67.4862 30.4496 68.0332 30.99 68.0332 31.6578V42.7408C68.0332 43.4086 67.4851 43.949 66.8184 43.949C66.1505 43.949 65.6035 43.4086 65.6035 42.7408V31.6578V31.6578Z" fill="white"/>
<path d="M61.2871 34.763C61.2871 34.0952 61.8352 33.5548 62.502 33.5548C63.1698 33.5548 63.7168 34.0952 63.7168 34.763V39.6367C63.7168 40.3034 63.1687 40.8449 62.502 40.8449C61.8341 40.8449 61.2871 40.3034 61.2871 39.6367V34.763Z" fill="white"/>
<path d="M56.9648 36.5172C56.9648 35.8494 57.513 35.309 58.1797 35.309C58.8475 35.309 59.3945 35.8494 59.3945 36.5172V37.8803C59.3945 38.5482 58.8464 39.0886 58.1797 39.0886C57.513 39.0886 56.9648 38.5482 56.9648 37.8803V36.5172V36.5172Z" fill="white"/>
<path d="M52.6445 36.5172C52.6445 35.8494 53.1926 35.309 53.8594 35.309C54.5272 35.309 55.0742 35.8494 55.0742 36.5172V37.8803C55.0742 38.5482 54.5261 39.0886 53.8594 39.0886C53.1926 39.0886 52.6445 38.5482 52.6445 37.8803V36.5172V36.5172Z" fill="white"/>
</svg>
