<svg width="235" height="70" viewBox="0 0 235 70" fill="none" xmlns="http://www.w3.org/2000/svg">
<g clip-path="url(#clip0_1758_968)">
<path d="M108.043 25.9876C109.655 24.8107 111.556 24.0864 113.547 23.9053V27.1826C112.262 27.3455 111.049 27.8344 109.999 28.613C108.695 29.5907 107.717 30.9487 107.246 32.5058C106.776 34.063 106.812 35.7287 107.355 37.2678C107.898 38.8068 108.93 40.1286 110.288 41.0339C111.646 41.9392 113.258 42.3918 114.887 42.3194C116.517 42.247 118.074 41.6495 119.341 40.6174C120.609 39.5854 121.496 38.1731 121.894 36.5978C122.166 35.4934 122.202 34.3527 121.985 33.2482L124.737 31.0392V31.0211C125.479 33.0671 125.588 35.2942 125.063 37.4126C124.484 39.6759 123.216 41.6857 121.406 43.1523C119.595 44.6189 117.368 45.488 115.05 45.5967C112.733 45.7053 110.415 45.0716 108.496 43.7679C106.558 42.4643 105.092 40.5812 104.313 38.3904C103.535 36.1995 103.48 33.8095 104.15 31.5824C104.802 29.3372 106.178 27.3818 108.043 25.9876Z" fill="#FCCA00"/>
<path d="M122.652 27.5266L122.67 27.5628L120.823 30.4779C120.153 29.482 119.266 28.6673 118.215 28.0698V34.7148C118.215 36.7608 116.568 38.4084 114.522 38.4084C112.476 38.4084 110.828 36.7608 110.828 34.7148C110.828 32.6687 112.476 31.0211 114.522 31.0211C115.282 31.0211 115.988 31.2565 116.586 31.6548V24.0502C118.976 24.5209 121.094 25.7703 122.652 27.5266Z" fill="#FC3F1D"/>
<path d="M40.2887 42.8807H43.1313V26.5126H39.0031C34.8387 26.5126 32.6478 28.6492 32.6478 31.8178C32.6478 34.3345 33.8428 35.8193 35.9975 37.3402L32.2676 42.8807H35.3456L39.492 36.6884L38.0616 35.7106C36.3234 34.5337 35.4724 33.6103 35.4724 31.6367C35.4724 29.8985 36.7036 28.7216 39.0212 28.7216H40.2887V42.8807ZM95.2049 43.1161C96.4905 43.1161 97.4139 42.8807 98.1019 42.3918V40.0923C97.3958 40.5812 96.5448 40.889 95.3679 40.889C93.3581 40.889 92.5433 39.3319 92.5433 36.8875C92.5433 34.3164 93.5573 32.9947 95.386 32.9947C96.4724 32.9947 97.5225 33.3749 98.0838 33.7189V31.3651C97.5044 31.0392 96.4543 30.8038 95.0782 30.8038C91.4932 30.8038 89.6463 33.3749 89.6463 36.9781C89.6644 40.9252 91.475 43.1161 95.2049 43.1161ZM77.6962 42.0659V39.7845C76.8271 40.3639 75.3605 40.889 74.0025 40.889C71.9565 40.889 71.1779 39.9294 71.0693 37.9558H77.8229V36.4711C77.8229 32.361 76.0123 30.8038 73.2058 30.8038C69.7837 30.8038 68.1723 33.4111 68.1723 36.9962C68.1723 41.1244 70.2002 43.1161 73.7671 43.1161C75.5596 43.1161 76.8814 42.6453 77.6962 42.0659ZM52.0396 31.0392V35.7287H48.2916V31.0392H45.5033V42.8807H48.3097V37.9377H52.0577V42.8807H54.8642V31.0392H52.0396ZM67.4843 40.6536H66.2349V31.0392H58.069V32.0532C58.069 34.9502 57.8879 38.6981 56.8921 40.6717H56.023V45.5966H58.6122V42.8988H64.8951V45.5966H67.4843V40.6536ZM86.6407 42.8807H89.8093L85.3189 36.4892L89.2661 31.0211H86.4415L82.4943 36.4892V31.0392H79.706V42.8807H82.5124V37.0505L86.6407 42.8807ZM73.1515 33.0128C74.5457 33.0128 74.9621 34.1716 74.9621 35.6563V35.8917H71.0512C71.1236 33.9905 71.8116 33.0128 73.1515 33.0128ZM63.4285 40.6536H59.4813C60.2599 38.8611 60.4771 35.6382 60.4771 33.5922V33.2482H63.4466V40.6536H63.4285Z" fill="black"/>
<path d="M136.939 42.8807H139.293L142.643 30.5322V42.8807H145.322V26.5126H141.629L138.297 38.5714L135.02 26.5126H131.254V42.8626H133.59V30.5141L136.939 42.8807ZM149.179 46.5201C151.786 46.5201 152.764 44.6551 153.561 42.2289L157.254 31.0211H154.539L151.931 39.9113L149.324 31.0211H146.391L150.465 43.3696C150.157 43.9309 149.704 44.293 148.926 44.293C148.401 44.293 147.966 44.13 147.658 43.8222V46.1036C147.658 46.1217 148.075 46.5201 149.179 46.5201ZM161.328 40.889C159.898 40.889 158.486 40.3639 157.725 39.8026V42.084C158.268 42.5367 159.626 43.098 161.654 43.098C164.642 43.098 166.217 41.7581 166.217 39.3862C166.217 37.992 165.348 37.0505 163.791 36.7246C165.257 36.2538 165.855 35.2217 165.855 33.9C165.855 31.8902 164.28 30.7857 161.727 30.7857C159.898 30.7857 158.685 31.347 158.015 31.7816V34.0629C158.775 33.5741 159.807 32.9947 161.328 32.9947C162.36 32.9947 163.03 33.4835 163.03 34.3526C163.03 35.2761 162.469 35.7649 161.31 35.7649H159.536V37.8834H161.31C162.741 37.8834 163.32 38.2998 163.32 39.35C163.338 40.3096 162.65 40.889 161.328 40.889ZM168.118 31.0392V42.8807H172.373C175.125 42.8807 177.081 41.4684 177.081 38.6981C177.081 36.0546 175.343 34.6786 172.428 34.6786H170.925V31.0573H168.118V31.0392ZM178.113 31.0392V42.8807H180.919V31.0392H178.113ZM172.21 40.6536H170.925V36.8694H172.283C173.478 36.8694 174.184 37.4126 174.184 38.7706C174.184 40.1285 173.405 40.6536 172.21 40.6536ZM190.208 42.8807H193.376L188.886 36.4892L192.833 31.0211H190.009L186.062 36.4892V31.0392H183.255V42.8807H186.062V37.0505L190.208 42.8807ZM202.918 34.8053C202.918 31.9264 201.452 30.8581 198.501 30.8581C196.636 30.8581 195.187 31.4375 194.336 31.9445V34.2802C195.097 33.7189 196.744 33.1033 198.175 33.1033C199.515 33.1033 200.13 33.5741 200.13 34.8415V35.4933H199.677C195.386 35.4933 193.485 36.9056 193.485 39.3138C193.485 41.7219 194.952 43.0618 197.106 43.0618C198.754 43.0618 199.46 42.5186 200.003 41.9573H200.112C200.13 42.2651 200.239 42.6634 200.329 42.8988H203.063C202.973 41.9392 202.918 40.9614 202.918 40.0018V34.8053ZM200.112 40.0561C199.768 40.5812 199.098 40.9976 198.12 40.9976C196.943 40.9976 196.346 40.2915 196.346 39.2232C196.346 37.829 197.306 37.3402 199.714 37.3402H200.112V40.0561Z" fill="black"/>
</g>
<defs>
<clipPath id="clip0_1758_968">
<rect width="173.277" height="23.5381" fill="black" transform="translate(31 23)"/>
</clipPath>
</defs>
</svg>
