<svg width="235" height="70" viewBox="0 0 235 70" fill="none" xmlns="http://www.w3.org/2000/svg">
<g clip-path="url(#clip0_1758_968)">
<path d="M157.569 32.5744C156.937 35.7788 156.458 39.6844 156.206 41.299H156.029C155.826 39.6351 155.347 35.7492 154.691 32.599L153.076 24.7582H148.158V45.9156H151.21V28.4762L151.511 30.1056L154.612 45.9156H157.663L160.714 30.1056L161.04 28.4663V38.9487V45.9156H164.092V24.7582H159.125L157.569 32.5744Z" fill="black"/>
<path d="M172.348 42.7358C172.072 43.3135 171.464 43.7184 170.862 43.7184C170.156 43.7184 169.879 43.1654 169.879 41.8026V30.4561H166.398V42.0051C166.398 44.854 167.332 46.1674 169.4 46.1674C170.813 46.1674 171.948 45.5354 172.728 44.0245H172.802L173.104 45.9156H175.829V30.4561H172.348V42.7358Z" fill="black"/>
<path d="M182.559 36.5587C181.423 35.7243 180.717 35.1713 180.717 33.9616C180.717 33.1024 181.122 32.6235 182.08 32.6235C183.062 32.6235 183.393 33.3049 183.418 35.6255L186.341 35.4972C186.568 31.7397 185.334 30.1745 182.129 30.1745C179.152 30.1745 177.69 31.5125 177.69 34.2578C177.69 36.7562 178.9 37.8869 180.87 39.3781C182.559 40.6915 183.541 41.4222 183.541 42.4789C183.541 43.2837 183.038 43.8416 182.154 43.8416C181.122 43.8416 180.514 42.859 180.668 41.1457L177.715 41.1951C177.261 44.3996 178.549 46.266 181.976 46.266C184.978 46.266 186.538 44.8785 186.538 42.1036C186.543 39.5854 185.284 38.5732 182.559 36.5587Z" fill="black"/>
<path d="M191.787 30.4561H188.459V45.9156H191.787V30.4561Z" fill="black"/>
<path d="M190.145 24.3532C188.861 24.3532 188.254 24.8322 188.254 26.4961C188.254 28.2094 188.861 28.639 190.145 28.639C191.458 28.639 192.036 28.2094 192.036 26.4961C192.036 24.9062 191.458 24.3532 190.145 24.3532Z" fill="black"/>
<path d="M202.987 40.341L199.936 40.1879C199.936 42.9134 199.635 43.7923 198.598 43.7923C197.566 43.7923 197.388 42.8098 197.388 39.6053V36.6033C197.388 33.5025 197.591 32.5199 198.623 32.5199C199.58 32.5199 199.832 33.4531 199.832 36.3268L202.859 36.1243C203.061 33.7296 202.76 32.0903 201.827 31.1571C201.146 30.4758 200.114 30.1499 198.677 30.1499C195.3 30.1499 193.912 31.9669 193.912 37.0575V39.2251C193.912 44.4688 195.097 46.1574 198.553 46.1574C200.015 46.1574 201.022 45.8562 201.704 45.1995C202.686 44.3009 203.061 42.7357 202.987 40.341Z" fill="black"/>
<path d="M84.1893 45.4611C83.4931 44.992 82.9944 44.2613 82.7031 43.2688C82.4069 42.2764 82.2637 40.958 82.2637 39.3089V37.0623C82.2637 35.3983 82.4315 34.0603 82.7673 33.053C83.1031 32.0457 83.6264 31.3101 84.3424 30.8459C85.0583 30.3818 85.9965 30.1547 87.1568 30.1547C88.3023 30.1547 89.2157 30.3917 89.907 30.8607C90.5983 31.3298 91.1019 32.0655 91.4179 33.0678C91.7388 34.0701 91.8968 35.3983 91.8968 37.0672V39.3138C91.8968 40.963 91.7388 42.2862 91.4278 43.2886C91.1167 44.2909 90.6131 45.0216 89.9169 45.4808C89.2207 45.945 88.2727 46.1721 87.0778 46.1721C85.8483 46.1672 84.8855 45.9301 84.1893 45.4611ZM88.0999 43.0417C88.2924 42.538 88.3912 41.7135 88.3912 40.568V35.7489C88.3912 34.638 88.2924 33.8282 88.0999 33.3147C87.9073 32.8012 87.5666 32.5444 87.0778 32.5444C86.6087 32.5444 86.273 32.8012 86.0804 33.3147C85.8878 33.8282 85.7891 34.638 85.7891 35.7489V40.568C85.7891 41.7135 85.8829 42.5331 86.0656 43.0417C86.2483 43.5453 86.584 43.7971 87.0728 43.7971C87.5617 43.7971 87.9024 43.5453 88.0999 43.0417Z" fill="black"/>
<path d="M137.755 39.3435V40.1236C137.755 41.116 137.785 41.8616 137.844 42.3554C137.904 42.8491 138.027 43.2145 138.21 43.4416C138.392 43.6688 138.679 43.7823 139.069 43.7823C139.587 43.7823 139.948 43.5799 140.14 43.175C140.333 42.7701 140.437 42.0986 140.456 41.1555L143.458 41.3333C143.473 41.4666 143.483 41.6542 143.483 41.8863C143.483 43.3133 143.093 44.3847 142.308 45.0908C141.528 45.7968 140.422 46.1524 138.99 46.1524C137.277 46.1524 136.072 45.6142 135.385 44.5378C134.694 43.4614 134.354 41.7974 134.354 39.5459V36.8451C134.354 34.5244 134.709 32.8308 135.425 31.7643C136.141 30.6978 137.36 30.1646 139.094 30.1646C140.288 30.1646 141.202 30.3818 141.844 30.8212C142.481 31.2607 142.93 31.9371 143.192 32.8654C143.453 33.7887 143.582 35.0675 143.582 36.6969V39.3435H137.755ZM138.195 32.8358C138.017 33.053 137.899 33.4135 137.844 33.9072C137.785 34.401 137.755 35.1564 137.755 36.1637V37.2746H140.303V36.1637C140.303 35.1712 140.269 34.4207 140.205 33.9072C140.135 33.3937 140.017 33.0333 139.839 32.821C139.661 32.6086 139.39 32.505 139.02 32.505C138.644 32.5099 138.373 32.6185 138.195 32.8358Z" fill="black"/>
<path d="M75.7099 39.0521L71.75 24.753H75.2063L76.5937 31.236C76.9492 32.8358 77.206 34.1936 77.3739 35.3193H77.4726C77.5911 34.5145 77.8528 33.1567 78.2528 31.2607L79.6896 24.753H83.1459L79.1366 39.0521V45.9104H75.705V39.0521H75.7099Z" fill="black"/>
<path d="M103.128 30.4557V45.9152H100.402L100.101 44.0241H100.027C99.2866 45.4511 98.1756 46.167 96.6993 46.167C95.6723 46.167 94.9168 45.8313 94.428 45.1598C93.9392 44.4883 93.6973 43.4366 93.6973 42.0047V30.4557H97.1782V41.8072C97.1782 42.4984 97.2523 42.9872 97.4054 43.2835C97.5584 43.5798 97.8103 43.7229 98.1608 43.7229C98.462 43.7229 98.7533 43.6291 99.0298 43.4464C99.3063 43.2638 99.5137 43.0267 99.647 42.7404V30.4557H103.128Z" fill="black"/>
<path d="M120.983 30.4557V45.9152H118.258L117.957 44.0241H117.883C117.142 45.4511 116.031 46.167 114.555 46.167C113.528 46.167 112.772 45.8313 112.283 45.1598C111.795 44.4883 111.553 43.4366 111.553 42.0047V30.4557H115.034V41.8072C115.034 42.4984 115.108 42.9872 115.261 43.2835C115.414 43.5798 115.666 43.7229 116.016 43.7229C116.317 43.7229 116.609 43.6291 116.885 43.4464C117.162 43.2638 117.369 43.0267 117.502 42.7404V30.4557H120.983Z" fill="black"/>
<path d="M112.587 27.5526H109.131V45.9153H105.724V27.5526H102.268V24.753H112.587V27.5526Z" fill="black"/>
<path d="M132.503 32.9245C132.291 31.9519 131.95 31.2458 131.481 30.8063C131.012 30.3669 130.36 30.1496 129.54 30.1496C128.903 30.1496 128.306 30.3323 127.748 30.6928C127.195 31.0532 126.765 31.5272 126.459 32.1197H126.435V23.9728H123.082V45.9153H125.956L126.311 44.4537H126.385C126.652 44.9771 127.057 45.3869 127.595 45.6881C128.133 45.9893 128.731 46.1424 129.387 46.1424C130.562 46.1424 131.431 45.5993 131.984 44.5179C132.537 43.4317 132.819 41.7381 132.819 39.4372V36.9931C132.819 35.2551 132.715 33.9022 132.503 32.9245ZM129.313 39.2298C129.313 40.3556 129.269 41.2394 129.175 41.8763C129.081 42.5133 128.928 42.9675 128.706 43.2391C128.489 43.5107 128.192 43.644 127.822 43.644C127.536 43.644 127.269 43.5749 127.027 43.4415C126.785 43.3082 126.588 43.1058 126.435 42.8342V34.0602C126.553 33.6405 126.756 33.2949 127.042 33.0282C127.328 32.7616 127.639 32.6234 127.975 32.6234C128.331 32.6234 128.602 32.7616 128.795 33.0381C128.987 33.3146 129.121 33.7837 129.2 34.4404C129.274 35.0971 129.313 36.0303 129.313 37.24V39.2298Z" fill="black"/>
<path d="M67.5333 26.8562C67.1284 25.3404 65.9335 24.1455 64.4127 23.7357C61.6625 23 50.632 23 50.632 23C50.632 23 39.6064 23 36.8562 23.7357C35.3404 24.1406 34.1455 25.3355 33.7357 26.8562C33 29.6064 33 35.3439 33 35.3439C33 35.3439 33 41.0813 33.7357 43.8315C34.1406 45.3474 35.3355 46.5423 36.8562 46.9521C39.6064 47.6878 50.632 47.6878 50.632 47.6878C50.632 47.6878 61.6625 47.6878 64.4127 46.9521C65.9286 46.5472 67.1234 45.3523 67.5333 43.8315C68.269 41.0813 68.269 35.3439 68.269 35.3439C68.269 35.3439 68.269 29.6064 67.5333 26.8562Z" fill="#FF0000"/>
<path d="M47.1074 40.6321V30.0559L56.2715 35.344L47.1074 40.6321Z" fill="white"/>
</g>
<defs>
<clipPath id="clip0_1758_968">
<rect width="170" height="24.6878" fill="white" transform="translate(33 23)"/>
</clipPath>
</defs>
</svg>
